<svg xmlns="http://www.w3.org/2000/svg" fill="none" viewBox="0 0 192 192"><path fill="#fff" d="M170.327 0H21.6729C9.70329 0 0 9.70329 0 21.6729V170.327C0 182.297 9.70329 192 21.6729 192H170.327c11.97 0 21.673-9.703 21.673-21.673V21.6729C192 9.70329 182.297 0 170.327 0Z"/><path fill="#003DFF" d="M94.46 43.4725c-28.6848 0-52.0704 23.1284-52.4852 51.721-.4224 29.0345 23.1361 53.0955 52.1742 53.2645 8.97.054 17.606-2.139 25.275-6.309.749-.407.864-1.436.226-2.001l-4.911-4.354c-.998-.883-2.419-1.137-3.648-.615-5.353 2.278-11.1706 3.441-17.1686 3.368-23.4663-.288-42.4244-19.81-42.048-43.2729.3686-23.1667 19.3306-41.8982 42.5818-41.8982h42.5898V129.07l-24.162-21.469c-.783-.696-1.981-.561-2.611.276-3.878 5.134-10.195 8.329-17.2146 7.845-9.7344-.672-17.6217-8.509-18.3513-18.2399-.8717-11.6044 8.3251-21.3312 19.7529-21.3312 10.333 0 18.843 7.9527 19.73 18.0596.081.8985.484 1.7395 1.16 2.3347l6.293 5.5798c.715.633 1.847.245 2.024-.691.453-2.4274.614-4.9541.434-7.5499-1.014-14.7802-12.983-26.6689-27.771-27.5789-16.9497-1.0445-31.1231 12.215-31.5724 28.8384-.4378 16.1974 12.8333 30.1634 29.0343 30.5204 6.7621.15 13.0331-1.978 18.0981-5.66l31.572 27.986c1.352 1.198 3.491.238 3.491-1.571V45.4578c0-1.1021-.891-1.993-1.993-1.993h-50.5v.0077Z"/></svg>